<mxfile host="app.diagrams.net" agent="Mozilla/5.0 (Windows NT 10.0; Win64; x64) AppleWebKit/537.36 (KHTML, like Gecko) Chrome/130.0.0.0 Safari/537.36" version="24.8.4">
  <diagram name="Page-1" id="EOcYtQ9FTw6hvNL5b5CD">
    <mxGraphModel dx="1195" dy="588" grid="1" gridSize="10" guides="1" tooltips="1" connect="1" arrows="1" fold="1" page="1" pageScale="1" pageWidth="850" pageHeight="1100" math="0" shadow="0">
      <root>
        <mxCell id="0" />
        <mxCell id="1" parent="0" />
        <mxCell id="RMBBqw6jqLW0bcZg0GJP-1" value="main.py" style="rounded=0;whiteSpace=wrap;html=1;fillColor=#d5e8d4;strokeColor=#82b366;" parent="1" vertex="1">
          <mxGeometry x="85" y="70" width="70" height="40" as="geometry" />
        </mxCell>
        <mxCell id="RMBBqw6jqLW0bcZg0GJP-22" value="&lt;font style=&quot;font-size: 24px;&quot;&gt;Mouse 7 Test Software Dependency Diagram&lt;/font&gt;" style="text;html=1;align=center;verticalAlign=middle;whiteSpace=wrap;rounded=0;" parent="1" vertex="1">
          <mxGeometry x="15" y="20" width="495" height="30" as="geometry" />
        </mxCell>
        <mxCell id="RMBBqw6jqLW0bcZg0GJP-23" value="- &lt;b&gt;main.py&lt;/b&gt;&amp;nbsp;&lt;div&gt;&amp;nbsp; &amp;nbsp; - [entry point]&lt;div&gt;&lt;br&gt;&lt;/div&gt;&lt;/div&gt;&lt;div&gt;- &lt;b&gt;tests.py&lt;/b&gt;&lt;/div&gt;&lt;div&gt;&amp;nbsp; &amp;nbsp; - [defines micromouse simulation functions]&lt;/div&gt;&lt;div&gt;&amp;nbsp; &amp;nbsp; -&amp;nbsp;run_diagonal_threshold_test,&amp;nbsp;run_turn_90_deg_pid_test, etc&lt;/div&gt;&lt;div&gt;&lt;br&gt;&lt;/div&gt;&lt;div&gt;- &lt;b&gt;maze.py&lt;/b&gt;&lt;/div&gt;&lt;div&gt;&amp;nbsp; &amp;nbsp; - [defines maze class, utilizing mouse and obstacle classes]&lt;/div&gt;&lt;div&gt;&lt;br&gt;&lt;/div&gt;&lt;div&gt;- &lt;b&gt;mouse.py&lt;/b&gt;&lt;/div&gt;&lt;div&gt;&amp;nbsp; &amp;nbsp; - [defines mouse class with Mouse 7&#39;s hardware parameters]&lt;/div&gt;&lt;div&gt;&lt;br&gt;&lt;/div&gt;&lt;div&gt;- &lt;b&gt;obstacle.py&lt;/b&gt;&lt;/div&gt;&lt;div&gt;&amp;nbsp; &amp;nbsp; - [defines wall and post classes to simulate a maze]&lt;/div&gt;" style="rounded=0;whiteSpace=wrap;html=1;align=left;" parent="1" vertex="1">
          <mxGeometry x="240" y="80" width="360" height="235" as="geometry" />
        </mxCell>
        <mxCell id="58g1xsu5PObIXc8r-eU7-5" style="edgeStyle=orthogonalEdgeStyle;rounded=0;orthogonalLoop=1;jettySize=auto;html=1;entryX=0;entryY=0.5;entryDx=0;entryDy=0;" edge="1" parent="1" target="58g1xsu5PObIXc8r-eU7-3">
          <mxGeometry relative="1" as="geometry">
            <mxPoint x="75.25" y="225" as="targetPoint" />
            <mxPoint x="60" y="275" as="sourcePoint" />
            <Array as="points">
              <mxPoint x="60" y="250" />
              <mxPoint x="60" y="250" />
              <mxPoint x="60" y="225" />
            </Array>
          </mxGeometry>
        </mxCell>
        <mxCell id="58g1xsu5PObIXc8r-eU7-1" value="mouse.py" style="rounded=0;whiteSpace=wrap;html=1;fillColor=#d5e8d4;strokeColor=#82b366;" vertex="1" parent="1">
          <mxGeometry x="20" y="275" width="80" height="40" as="geometry" />
        </mxCell>
        <mxCell id="58g1xsu5PObIXc8r-eU7-8" style="edgeStyle=orthogonalEdgeStyle;rounded=0;orthogonalLoop=1;jettySize=auto;html=1;entryX=0.5;entryY=1;entryDx=0;entryDy=0;" edge="1" parent="1" source="58g1xsu5PObIXc8r-eU7-2" target="RMBBqw6jqLW0bcZg0GJP-1">
          <mxGeometry relative="1" as="geometry" />
        </mxCell>
        <mxCell id="58g1xsu5PObIXc8r-eU7-2" value="tests.py" style="rounded=0;whiteSpace=wrap;html=1;fillColor=#d5e8d4;strokeColor=#82b366;" vertex="1" parent="1">
          <mxGeometry x="85" y="135" width="70" height="40" as="geometry" />
        </mxCell>
        <mxCell id="58g1xsu5PObIXc8r-eU7-7" style="edgeStyle=orthogonalEdgeStyle;rounded=0;orthogonalLoop=1;jettySize=auto;html=1;entryX=0.5;entryY=1;entryDx=0;entryDy=0;" edge="1" parent="1" source="58g1xsu5PObIXc8r-eU7-3" target="58g1xsu5PObIXc8r-eU7-2">
          <mxGeometry relative="1" as="geometry" />
        </mxCell>
        <mxCell id="58g1xsu5PObIXc8r-eU7-3" value="maze.py" style="rounded=0;whiteSpace=wrap;html=1;fillColor=#d5e8d4;strokeColor=#82b366;" vertex="1" parent="1">
          <mxGeometry x="85" y="205" width="70" height="40" as="geometry" />
        </mxCell>
        <mxCell id="58g1xsu5PObIXc8r-eU7-6" style="edgeStyle=orthogonalEdgeStyle;rounded=0;orthogonalLoop=1;jettySize=auto;html=1;entryX=1;entryY=0.5;entryDx=0;entryDy=0;" edge="1" parent="1" target="58g1xsu5PObIXc8r-eU7-3">
          <mxGeometry relative="1" as="geometry">
            <mxPoint x="170" y="225" as="targetPoint" />
            <mxPoint x="184.75" y="275" as="sourcePoint" />
            <Array as="points">
              <mxPoint x="185" y="250" />
              <mxPoint x="185" y="250" />
              <mxPoint x="185" y="225" />
            </Array>
          </mxGeometry>
        </mxCell>
        <mxCell id="58g1xsu5PObIXc8r-eU7-4" value="obstacle.py" style="rounded=0;whiteSpace=wrap;html=1;fillColor=#d5e8d4;strokeColor=#82b366;" vertex="1" parent="1">
          <mxGeometry x="140" y="275" width="80" height="40" as="geometry" />
        </mxCell>
      </root>
    </mxGraphModel>
  </diagram>
</mxfile>
